<svg width="50" height="50" viewBox="0 0 50 50" fill="none" xmlns="http://www.w3.org/2000/svg">
<path d="M32.7292 26.4792C34.7716 24.8722 36.2625 22.6686 36.9942 20.1749C37.726 17.6812 37.6623 15.0214 36.812 12.5656C35.9618 10.1097 34.3672 7.97998 32.2501 6.47261C30.1331 4.96524 27.5989 4.15521 25 4.15521C22.4011 4.15521 19.8669 4.96524 17.7498 6.47261C15.6328 7.97998 14.0382 10.1097 13.1879 12.5656C12.3377 15.0214 12.274 17.6812 13.0057 20.1749C13.7375 22.6686 15.2283 24.8722 17.2708 26.4792C13.771 27.8813 10.7173 30.207 8.43519 33.2082C6.15311 36.2093 4.72825 39.7736 4.31249 43.5208C4.2824 43.7944 4.30649 44.0713 4.38338 44.3355C4.46027 44.5998 4.58847 44.8464 4.76064 45.0611C5.10837 45.4948 5.61413 45.7726 6.16666 45.8333C6.71919 45.8941 7.27324 45.7329 7.70692 45.3852C8.1406 45.0375 8.41838 44.5317 8.47916 43.9792C8.93663 39.9066 10.8785 36.1454 13.9338 33.4141C16.9891 30.6829 20.9435 29.173 25.0417 29.173C29.1398 29.173 33.0943 30.6829 36.1495 33.4141C39.2048 36.1454 41.1467 39.9066 41.6042 43.9792C41.6608 44.4911 41.9051 44.9639 42.2898 45.3063C42.6745 45.6487 43.1725 45.8365 43.6875 45.8333H43.9167C44.4628 45.7705 44.9619 45.4944 45.3053 45.0651C45.6487 44.6358 45.8086 44.0883 45.75 43.5417C45.3323 39.7838 43.8997 36.2104 41.6059 33.2046C39.3121 30.1988 36.2436 27.8739 32.7292 26.4792V26.4792ZM25 25C23.3518 25 21.7407 24.5113 20.3702 23.5956C18.9998 22.6799 17.9317 21.3784 17.301 19.8557C16.6703 18.333 16.5052 16.6574 16.8268 15.0409C17.1483 13.4244 17.942 11.9395 19.1074 10.7741C20.2729 9.60867 21.7577 8.815 23.3742 8.49345C24.9907 8.17191 26.6663 8.33694 28.189 8.96767C29.7117 9.5984 31.0132 10.6665 31.9289 12.0369C32.8446 13.4073 33.3333 15.0185 33.3333 16.6667C33.3333 18.8768 32.4554 20.9964 30.8925 22.5592C29.3297 24.122 27.2101 25 25 25Z" fill="white"/>
</svg>
