<svg xmlns="http://www.w3.org/2000/svg" viewBox="0 0 397.23 175.7">
<defs>
<style>.cls-1{font-size:61px;font-family:Poppins-Black, Poppins;font-weight:800;}.cls-1,.cls-2{fill:#fff;}</style>
</defs>
<g id="Layer_2" data-name="Layer 2">
<g id="Layer_1" data-name="Layer 1">
<text class="cls-1" transform="translate(0 137.45)">Grannloppis</text>
<polygon class="cls-2" points="129.68 70.94 150.33 70.94 208.09 24.77 234.59 45.41 246.15 37.81 208.09 6.3 179.55 29.66 179.55 22.06 169.35 22.06 170.03 35.09 129.68 70.94"/>
<rect class="cls-2" x="199.26" y="50.84" width="7.48" height="5.43"/>
<rect class="cls-2" x="209.44" y="42.39" width="7.48" height="5.43"/>
<polygon class="cls-2" points="206.73 75.3 265.96 29.48 265.96 13.85 275.41 13.85 275.41 21.31 301.63 0 396.29 75.3 370.51 75.3 301.51 18.47 233.64 75.3 206.73 75.3"/>
<rect class="cls-2" x="209.44" y="50.84" width="7.48" height="5.43"/>
<rect class="cls-2" x="285.89" y="46.18" width="13.07" height="10.93"/>
<rect class="cls-2" x="304.43" y="46.18" width="13.07" height="10.93"/>
<rect class="cls-2" x="304.43" y="60.01" width="13.07" height="10.93"/>
<rect class="cls-2" x="285.89" y="60.01" width="13.07" height="10.93"/>
<rect class="cls-2" x="199.26" y="42.39" width="7.48" height="5.43"/></g></g>
</svg>